<svg width="136" height="46" viewBox="0 0 136 46" fill="none" xmlns="http://www.w3.org/2000/svg">
<mask id="mask0_1579_161" style="mask-type:luminance" maskUnits="userSpaceOnUse" x="0" y="0" width="136" height="46">
<path d="M135.584 0H0V45.3216H135.584V0Z" fill="white"/>
</mask>
<g mask="url(#mask0_1579_161)">
<path d="M124.787 0.000147295H10.8032C10.3877 0.000147295 9.97718 0.000147295 9.56279 0.00241337C9.21591 0.00467945 8.8718 0.0112624 8.52159 0.0168029C7.76076 0.025756 7.00174 0.0926897 6.25109 0.217022C5.50149 0.344062 4.77539 0.583567 4.09732 0.927438C3.42008 1.27422 2.80126 1.72483 2.26333 2.26291C1.72256 2.79947 1.27179 3.41967 0.928356 4.09967C0.583969 4.7783 0.34517 5.50552 0.220207 6.2562C0.0940546 7.00593 0.0261709 7.76432 0.0171655 8.52455C0.00665088 8.87194 0.00554056 9.22048 0 9.56792V35.7573C0.00554056 36.1091 0.00665088 36.4499 0.0171655 36.8018C0.0261743 37.562 0.0940569 38.3203 0.220207 39.07C0.344819 39.8211 0.583641 40.5488 0.928356 41.2277C1.27163 41.9055 1.72247 42.5232 2.26333 43.0568C2.79922 43.5972 3.41844 44.0482 4.09732 44.3923C4.77539 44.737 5.50142 44.9781 6.25109 45.107C7.00186 45.2304 7.76082 45.2973 8.52159 45.3073C8.8718 45.315 9.21591 45.3194 9.56279 45.3194C9.97717 45.3217 10.3877 45.3217 10.8032 45.3217H124.787C125.194 45.3217 125.608 45.3217 126.015 45.3194C126.36 45.3194 126.715 45.315 127.059 45.3073C127.819 45.2978 128.577 45.2308 129.325 45.107C130.078 44.9771 130.806 44.7363 131.487 44.3923C132.166 44.0479 132.785 43.5971 133.321 43.0568C133.86 42.5211 134.312 41.9039 134.659 41.2277C135.001 40.5483 135.238 39.8208 135.36 39.07C135.487 38.3202 135.557 37.5621 135.571 36.8018C135.575 36.4499 135.575 36.1091 135.575 35.7573C135.584 35.3456 135.584 34.9363 135.584 34.5179V10.805C135.584 10.39 135.584 9.97842 135.575 9.56792C135.575 9.22048 135.575 8.87194 135.571 8.5245C135.557 7.76421 135.487 7.00599 135.36 6.25616C135.238 5.5059 135.001 4.77874 134.659 4.09962C133.96 2.73665 132.85 1.62722 131.487 0.927336C130.806 0.584305 130.078 0.344863 129.325 0.21692C128.577 0.0920399 127.82 0.025083 127.059 0.0166443C126.715 0.0111151 126.36 0.0044755 126.015 0.00226608C125.608 0 125.194 0.000147295 124.787 0.000147295Z" fill="#A6A6A6"/>
<path d="M9.56745 44.3309C9.22223 44.3309 8.88536 44.3265 8.54285 44.3188C7.83332 44.3095 7.12544 44.2478 6.42504 44.134C5.77195 44.0215 5.13927 43.8123 4.54789 43.5132C3.96193 43.2166 3.42749 42.8277 2.96504 42.3614C2.49589 41.9006 2.1053 41.366 1.80876 40.7791C1.50895 40.1883 1.30145 39.5551 1.19352 38.9014C1.07695 38.199 1.01389 37.4888 1.00487 36.777C0.997686 36.538 0.988281 35.7424 0.988281 35.7424V9.56854C0.988281 9.56854 0.998297 8.78515 1.00493 8.555C1.01356 7.84422 1.07626 7.13513 1.19248 6.43387C1.3006 5.77843 1.50826 5.14336 1.80824 4.55064C2.10369 3.96408 2.49211 3.4292 2.95843 2.96671C3.42422 2.49983 3.96038 2.10891 4.54734 1.80821C5.13736 1.51009 5.76883 1.30233 6.42061 1.19191C7.12331 1.07698 7.83365 1.01484 8.54564 1.00602L9.568 0.992188H126.009L127.044 1.00658C127.749 1.01496 128.453 1.07654 129.149 1.1908C129.807 1.30262 130.445 1.51182 131.042 1.81153C132.218 2.41754 133.175 3.37628 133.779 4.55341C134.073 5.14203 134.278 5.77192 134.385 6.4217C134.503 7.12872 134.568 7.84338 134.582 8.55998C134.585 8.88086 134.585 9.22553 134.585 9.56854C134.594 9.99343 134.594 10.3979 134.594 10.8056V34.5186C134.594 34.9302 134.594 35.3319 134.585 35.7368C134.585 36.1053 134.585 36.4428 134.581 36.7902C134.567 37.4941 134.503 38.196 134.387 38.8903C134.282 39.5487 134.075 40.1868 133.775 40.7825C133.476 41.363 133.089 41.893 132.624 42.3525C132.162 42.8214 131.626 43.2125 131.039 43.5111C130.444 43.8125 129.806 44.0224 129.149 44.134C128.449 44.2484 127.741 44.3102 127.031 44.3188C126.699 44.3265 126.351 44.3309 126.014 44.3309L124.786 44.3332L9.56745 44.3309Z" fill="black"/>
<path d="M47.9285 30.7495H42.5654L41.2775 34.5525H39.0059L44.0857 20.4824H46.4458L51.5257 34.5525H49.2153L47.9285 30.7495ZM43.1208 28.9946H47.372L45.2763 22.8226H45.2176L43.1208 28.9946Z" fill="white"/>
<path d="M62.4969 29.4245C62.4969 32.6123 60.7908 34.6603 58.2159 34.6603C57.5637 34.6944 56.9151 34.5442 56.3443 34.2268C55.7734 33.9094 55.3034 33.4377 54.9883 32.8656H54.9396V37.9466H52.834V24.2948H54.8721V26.001H54.9108C55.2406 25.4317 55.7184 24.9624 56.2935 24.643C56.8687 24.3237 57.5197 24.1662 58.1772 24.1874C60.7807 24.1875 62.4969 26.2456 62.4969 29.4245ZM60.3327 29.4245C60.3327 27.3476 59.2593 25.9822 57.6218 25.9822C56.013 25.9822 54.9308 27.3764 54.9308 29.4245C54.9308 31.4913 56.013 32.8756 57.6218 32.8756C59.2593 32.8756 60.3327 31.5201 60.3327 29.4245Z" fill="white"/>
<path d="M73.788 29.4245C73.788 32.6123 72.0818 34.6603 69.507 34.6603C68.8548 34.6944 68.2061 34.5442 67.6353 34.2268C67.0644 33.9094 66.5946 33.4377 66.2794 32.8656H66.2306V37.9466H64.125V24.2948H66.1631V26.001H66.2019C66.5316 25.4317 67.0094 24.9624 67.5845 24.643C68.1598 24.3237 68.8107 24.1662 69.4682 24.1874C72.0718 24.1874 73.788 26.2455 73.788 29.4245ZM71.6237 29.4245C71.6237 27.3476 70.5503 25.9822 68.9128 25.9822C67.304 25.9822 66.2218 27.3764 66.2218 29.4245C66.2218 31.4913 67.304 32.8756 68.9128 32.8756C70.5503 32.8756 71.6237 31.5201 71.6237 29.4245Z" fill="white"/>
<path d="M81.2512 30.6325C81.4072 32.0278 82.7627 32.9439 84.615 32.9439C86.3898 32.9439 87.6666 32.0277 87.6666 30.7697C87.6666 29.6775 86.8965 29.0237 85.0731 28.5755L83.2495 28.1363C80.6659 27.5122 79.4664 26.3039 79.4664 24.3432C79.4664 21.9155 81.582 20.248 84.5862 20.248C87.5593 20.248 89.5974 21.9155 89.6661 24.3432H87.5405C87.4132 22.939 86.2524 22.0915 84.5563 22.0915C82.86 22.0915 81.6993 22.949 81.6993 24.1971C81.6993 25.1918 82.4407 25.7772 84.2542 26.2253L85.8043 26.6059C88.6912 27.2886 89.8906 28.4482 89.8906 30.5062C89.8906 33.1386 87.7938 34.7872 84.4588 34.7872C81.3386 34.7872 79.2319 33.1773 79.0957 30.6323L81.2512 30.6325Z" fill="white"/>
<path d="M94.4333 21.8672V24.2948H96.3841V25.9623H94.4333V31.6176C94.4333 32.4961 94.8239 32.9055 95.6815 32.9055C95.9131 32.9014 96.1442 32.8852 96.3741 32.8568V34.5143C95.9885 34.5863 95.5967 34.619 95.2046 34.6116C93.1277 34.6116 92.3177 33.8315 92.3177 31.8421V25.9623H90.8262V24.2948H92.3177V21.8672H94.4333Z" fill="white"/>
<path d="M97.5156 29.4256C97.5156 26.1981 99.4165 24.1699 102.381 24.1699C105.355 24.1699 107.247 26.1981 107.247 29.4256C107.247 32.6622 105.365 34.6815 102.381 34.6815C99.3977 34.6815 97.5156 32.6622 97.5156 29.4256ZM105.102 29.4256C105.102 27.2116 104.087 25.9048 102.381 25.9048C100.675 25.9048 99.661 27.2215 99.661 29.4256C99.661 31.6485 100.675 32.9454 102.381 32.9454C104.087 32.9454 105.102 31.6485 105.102 29.4256Z" fill="white"/>
<path d="M108.982 24.2947H110.991V26.0407H111.039C111.175 25.4954 111.495 25.0135 111.944 24.676C112.393 24.3385 112.945 24.1659 113.507 24.1873C113.749 24.1865 113.992 24.2129 114.229 24.266V26.2355C113.922 26.1418 113.602 26.0989 113.283 26.1083C112.977 26.0958 112.671 26.1497 112.389 26.2663C112.105 26.3829 111.851 26.5593 111.642 26.7836C111.434 27.0078 111.276 27.2745 111.181 27.5653C111.085 27.8561 111.053 28.1642 111.088 28.4684V34.5529H108.982V24.2947Z" fill="white"/>
<path d="M123.937 31.5412C123.654 33.4035 121.84 34.6815 119.519 34.6815C116.536 34.6815 114.684 32.682 114.684 29.4744C114.684 26.2568 116.545 24.1699 119.431 24.1699C122.269 24.1699 124.054 26.1195 124.054 29.2298V29.9513H116.809V30.0785C116.775 30.456 116.823 30.8364 116.947 31.1942C117.072 31.552 117.273 31.8792 117.533 32.1541C117.794 32.4289 118.111 32.6451 118.461 32.7882C118.812 32.9313 119.19 32.998 119.568 32.9841C120.067 33.0307 120.565 32.9155 120.992 32.6555C121.42 32.3956 121.75 32.0048 121.937 31.5412H123.937ZM116.819 28.4797H121.948C121.967 28.1402 121.915 27.8005 121.797 27.4818C121.678 27.1632 121.494 26.8726 121.259 26.6281C121.022 26.3837 120.737 26.1906 120.424 26.0612C120.109 25.9318 119.771 25.8688 119.431 25.8761C119.089 25.874 118.749 25.94 118.432 26.0699C118.114 26.1999 117.826 26.3915 117.583 26.6335C117.339 26.8756 117.147 27.1633 117.017 27.4802C116.885 27.797 116.818 28.1367 116.819 28.4797Z" fill="white"/>
<path d="M42.8581 9.89244C43.2995 9.86076 43.7425 9.92745 44.155 10.0877C44.5676 10.248 44.9394 10.4978 45.2438 10.8191C45.5481 11.1405 45.7772 11.5254 45.9148 11.9461C46.0524 12.3668 46.0948 12.8126 46.0392 13.2518C46.0392 15.4116 44.8718 16.6532 42.8581 16.6532H40.416V9.89244H42.8581ZM41.4661 15.697H42.7408C43.0562 15.7159 43.3719 15.6641 43.6648 15.5456C43.9578 15.4271 44.2205 15.2447 44.4341 15.0118C44.6477 14.7789 44.8067 14.5013 44.8995 14.1992C44.9921 13.8972 45.0164 13.5781 44.9703 13.2655C45.0131 12.9541 44.9864 12.6371 44.8922 12.3372C44.798 12.0374 44.6386 11.7621 44.4256 11.5309C44.2125 11.2999 43.951 11.1188 43.6597 11.0007C43.3684 10.8826 43.0546 10.8304 42.7408 10.8478H41.4661V15.697Z" fill="white"/>
<path d="M47.2263 14.1002C47.1942 13.765 47.2325 13.4268 47.3389 13.1071C47.4452 12.7875 47.6172 12.4937 47.8436 12.2444C48.0701 11.9952 48.3464 11.7961 48.6543 11.6598C48.9624 11.5235 49.2955 11.4531 49.6323 11.4531C49.9691 11.4531 50.3022 11.5235 50.6102 11.6598C50.9183 11.7961 51.1944 11.9952 51.4209 12.2444C51.6475 12.4937 51.8194 12.7875 51.9258 13.1071C52.032 13.4268 52.0704 13.765 52.0384 14.1002C52.071 14.436 52.0332 14.7747 51.9271 15.0948C51.8211 15.4149 51.6492 15.7093 51.4226 15.959C51.196 16.2087 50.9196 16.4084 50.6113 16.5449C50.303 16.6815 49.9695 16.752 49.6323 16.752C49.2951 16.752 48.9616 16.6815 48.6532 16.5449C48.3449 16.4084 48.0686 16.2087 47.8419 15.959C47.6153 15.7093 47.4436 15.4149 47.3375 15.0948C47.2315 14.7747 47.1935 14.436 47.2263 14.1002ZM51.0027 14.1002C51.0027 12.9944 50.5058 12.3477 49.634 12.3477C48.7587 12.3477 48.2664 12.9944 48.2664 14.1004C48.2664 15.215 48.7588 15.8568 49.634 15.8568C50.5058 15.8568 51.0027 15.2106 51.0027 14.1002Z" fill="white"/>
<path d="M58.4352 16.6529H57.3907L56.3362 12.8951H56.2565L55.2065 16.6529H54.172L52.7656 11.5508H53.7868L54.7009 15.4439H54.7761L55.8251 11.5508H56.791L57.8399 15.4439H57.9196L58.8291 11.5508H59.836L58.4352 16.6529Z" fill="white"/>
<path d="M61.0177 11.5507H61.9869V12.3613H62.0621C62.1898 12.0701 62.4051 11.8262 62.678 11.6632C62.9509 11.5003 63.2679 11.4266 63.5847 11.4523C63.833 11.4336 64.0822 11.4711 64.314 11.5618C64.5459 11.6526 64.7542 11.7943 64.9238 11.9765C65.0935 12.1588 65.2199 12.3768 65.2938 12.6145C65.3677 12.8524 65.387 13.1037 65.3507 13.3499V16.6527H64.3437V13.6028C64.3437 12.7828 63.9874 12.3751 63.2428 12.3751C63.0743 12.3672 62.906 12.396 62.7495 12.4592C62.5931 12.5224 62.4522 12.6189 62.3365 12.7416C62.2208 12.8644 62.1331 13.0108 62.0791 13.1706C62.0253 13.3306 62.0067 13.5002 62.0245 13.668V16.6528H61.0176L61.0177 11.5507Z" fill="white"/>
<path d="M66.9551 9.55859H67.962V16.6523H66.9551V9.55859Z" fill="white"/>
<path d="M69.3629 14.1004C69.3309 13.7651 69.3693 13.4268 69.4755 13.1071C69.5819 12.7876 69.7539 12.4937 69.9804 12.2444C70.207 11.9952 70.4832 11.7961 70.7912 11.6598C71.0993 11.5235 71.4324 11.4531 71.7693 11.4531C72.106 11.4531 72.4391 11.5235 72.7472 11.6598C73.0553 11.7961 73.3314 11.9952 73.558 12.2444C73.7845 12.4937 73.9565 12.7876 74.0629 13.1071C74.1692 13.4268 74.2076 13.7651 74.1755 14.1004C74.2081 14.4361 74.1703 14.7749 74.0641 15.0949C73.9581 15.415 73.7862 15.7094 73.5596 15.9591C73.333 16.2088 73.0566 16.4085 72.7483 16.545C72.4399 16.6815 72.1065 16.7521 71.7693 16.7521C71.432 16.7521 71.0985 16.6815 70.7901 16.545C70.4818 16.4085 70.2054 16.2088 69.9788 15.9591C69.7522 15.7094 69.5804 15.415 69.4743 15.0949C69.3681 14.7749 69.3303 14.4361 69.3629 14.1004ZM73.1393 14.1004C73.1393 12.9945 72.6425 12.3478 71.7706 12.3478C70.8954 12.3478 70.4031 12.9945 70.4031 14.1005C70.4031 15.2152 70.8954 15.8569 71.7706 15.8569C72.6425 15.8569 73.1393 15.2107 73.1393 14.1004Z" fill="white"/>
<path d="M75.2363 15.2107C75.2363 14.2924 75.9201 13.7629 77.1339 13.6877L78.5159 13.6081V13.1676C78.5159 12.6288 78.1597 12.3245 77.4715 12.3245C76.9094 12.3245 76.5198 12.5309 76.4081 12.8916H75.4332C75.5362 12.0152 76.3605 11.4531 77.5179 11.4531C78.797 11.4531 79.5184 12.0899 79.5184 13.1676V16.6537H78.5491V15.9367H78.4695C78.3078 16.1939 78.0807 16.4035 77.8115 16.5442C77.5423 16.6849 77.2404 16.7518 76.937 16.7377C76.7229 16.7599 76.5064 16.7372 76.3015 16.6707C76.0968 16.6041 75.9081 16.4954 75.7479 16.3516C75.5877 16.2077 75.4593 16.0318 75.3713 15.8354C75.2831 15.6389 75.2372 15.4261 75.2363 15.2107ZM78.5159 14.7749V14.3483L77.27 14.4279C76.5674 14.4749 76.2488 14.714 76.2488 15.1637C76.2488 15.6229 76.6471 15.8901 77.1949 15.8901C77.3553 15.9064 77.5175 15.8902 77.6716 15.8425C77.8257 15.7948 77.9685 15.7166 78.0918 15.6125C78.2151 15.5085 78.3162 15.3807 78.389 15.2368C78.4619 15.0929 78.505 14.9357 78.5159 14.7749Z" fill="white"/>
<path d="M80.8398 14.0991C80.8398 12.4869 81.6686 11.4656 82.9576 11.4656C83.2764 11.451 83.5929 11.5274 83.87 11.6859C84.1471 11.8444 84.3732 12.0785 84.5222 12.3607H84.5975V9.55859H85.6044V16.6523H84.6395V15.8462H84.5598C84.3994 16.1266 84.1653 16.3577 83.8829 16.5146C83.6005 16.6716 83.2805 16.7483 82.9576 16.7364C81.6597 16.7364 80.8398 15.7151 80.8398 14.0991ZM81.88 14.0991C81.88 15.1812 82.3901 15.8323 83.2431 15.8323C84.0918 15.8323 84.6163 15.1718 84.6163 14.1035C84.6163 13.0402 84.0862 12.3702 83.2431 12.3702C82.3955 12.3702 81.88 13.0258 81.88 14.0991Z" fill="white"/>
<path d="M89.7711 14.1002C89.7391 13.765 89.7774 13.4268 89.8837 13.1071C89.99 12.7875 90.162 12.4937 90.3885 12.2444C90.6151 11.9952 90.8912 11.7961 91.1992 11.6598C91.5073 11.5235 91.8404 11.4531 92.1771 11.4531C92.514 11.4531 92.8471 11.5235 93.1551 11.6598C93.4631 11.7961 93.7392 11.9952 93.9657 12.2444C94.1924 12.4937 94.3642 12.7875 94.4706 13.1071C94.5769 13.4268 94.6153 13.765 94.5832 14.1002C94.6159 14.436 94.578 14.7747 94.472 15.0948C94.3659 15.4149 94.1941 15.7093 93.9674 15.959C93.7408 16.2087 93.4645 16.4084 93.1562 16.5449C92.8479 16.6815 92.5144 16.752 92.1771 16.752C91.8399 16.752 91.5065 16.6815 91.1982 16.5449C90.8898 16.4084 90.6134 16.2087 90.3868 15.959C90.1602 15.7093 89.9884 15.4149 89.8824 15.0948C89.7763 14.7747 89.7385 14.436 89.7711 14.1002ZM93.5475 14.1002C93.5475 12.9944 93.0507 12.3477 92.1788 12.3477C91.3036 12.3477 90.8113 12.9944 90.8113 14.1004C90.8113 15.215 91.3037 15.8568 92.1788 15.8568C93.0507 15.8568 93.5475 15.2106 93.5475 14.1002Z" fill="white"/>
<path d="M95.9336 11.5507H96.9028V12.3613H96.978C97.1057 12.0701 97.321 11.8262 97.5939 11.6632C97.8668 11.5003 98.1838 11.4266 98.5006 11.4523C98.7489 11.4336 98.9981 11.4711 99.2299 11.5618C99.4618 11.6526 99.6701 11.7943 99.8397 11.9765C100.009 12.1588 100.136 12.3768 100.21 12.6145C100.284 12.8524 100.303 13.1037 100.267 13.3499V16.6527H99.2596V13.6028C99.2596 12.7828 98.9034 12.3751 98.1587 12.3751C97.9902 12.3672 97.8219 12.396 97.6654 12.4592C97.5091 12.5224 97.3681 12.6189 97.2525 12.7416C97.1368 12.8644 97.049 13.0108 96.9951 13.1706C96.9412 13.3306 96.9226 13.5002 96.9404 13.668V16.6528H95.9336V11.5507Z" fill="white"/>
<path d="M105.957 10.2812V11.5747H107.062V12.4229H105.957V15.0463C105.957 15.5808 106.177 15.8148 106.678 15.8148C106.806 15.8144 106.935 15.8066 107.062 15.7915V16.6302C106.881 16.6626 106.698 16.6798 106.514 16.6816C105.395 16.6816 104.949 16.2878 104.949 15.3041V12.4228H104.139V11.5747H104.949V10.2812H105.957Z" fill="white"/>
<path d="M108.438 9.55859H109.436V12.3702H109.515C109.649 12.0763 109.87 11.8309 110.149 11.6674C110.427 11.5039 110.749 11.4301 111.071 11.4562C111.318 11.4428 111.565 11.4841 111.794 11.577C112.023 11.6699 112.229 11.8123 112.397 11.9939C112.565 12.1757 112.691 12.3921 112.764 12.628C112.839 12.8638 112.861 13.1132 112.828 13.3582V16.6523H111.82V13.6067C111.82 12.7917 111.441 12.3791 110.729 12.3791C110.556 12.3648 110.382 12.3886 110.219 12.4487C110.056 12.5088 109.908 12.6039 109.786 12.727C109.664 12.8502 109.57 12.9987 109.511 13.162C109.452 13.3253 109.429 13.4995 109.444 13.6725V16.6522H108.438L108.438 9.55859Z" fill="white"/>
<path d="M118.699 15.2761C118.562 15.7424 118.266 16.1458 117.861 16.4156C117.457 16.6855 116.971 16.8046 116.488 16.7522C116.152 16.761 115.817 16.6967 115.509 16.5636C115.2 16.4303 114.925 16.2316 114.7 15.9811C114.476 15.7304 114.308 15.4341 114.211 15.1126C114.112 14.7909 114.085 14.4518 114.131 14.1188C114.086 13.7847 114.114 13.4448 114.212 13.1223C114.31 12.7997 114.476 12.5019 114.699 12.2493C114.922 11.9965 115.196 11.7946 115.505 11.6573C115.813 11.5199 116.146 11.4504 116.484 11.4532C117.903 11.4532 118.76 12.4231 118.76 14.0252V14.3766H115.157V14.433C115.141 14.6203 115.165 14.8087 115.226 14.9863C115.287 15.1639 115.385 15.3267 115.513 15.4644C115.641 15.6019 115.796 15.7113 115.969 15.7854C116.141 15.8595 116.327 15.8968 116.515 15.8946C116.757 15.9235 117 15.8802 117.217 15.77C117.433 15.6598 117.611 15.488 117.73 15.2761H118.699ZM115.157 13.6319H117.733C117.747 13.4606 117.723 13.2886 117.665 13.1269C117.608 12.9652 117.517 12.8174 117.399 12.693C117.28 12.5685 117.137 12.4701 116.979 12.4042C116.82 12.3383 116.65 12.3063 116.478 12.3102C116.303 12.308 116.131 12.3407 115.969 12.4063C115.808 12.472 115.662 12.5693 115.539 12.6925C115.415 12.8157 115.319 12.9622 115.253 13.1235C115.187 13.2849 115.155 13.4578 115.157 13.6319Z" fill="white"/>
<path d="M28.0628 23.0015C28.075 22.0559 28.3262 21.1286 28.793 20.306C29.2598 19.4835 29.9272 18.7924 30.7329 18.2971C30.221 17.5661 29.5458 16.9646 28.7608 16.5401C27.9758 16.1158 27.1026 15.8802 26.2107 15.8524C24.3081 15.6526 22.4635 16.9908 21.494 16.9908C20.5058 16.9908 19.013 15.8722 17.4054 15.9053C16.3656 15.9388 15.3524 16.2412 14.4642 16.7828C13.576 17.3245 12.8433 18.0871 12.3374 18.9961C10.1461 22.79 11.7807 28.3656 13.8797 31.4323C14.93 32.9341 16.1574 34.6114 17.7633 34.5519C19.335 34.4868 19.9219 33.5499 21.8189 33.5499C23.6984 33.5499 24.2491 34.5519 25.8877 34.5142C27.5741 34.4868 28.6367 33.0058 29.6499 31.4899C30.4045 30.42 30.9852 29.2373 31.3705 27.986C30.3907 27.5716 29.5545 26.878 28.9664 25.9916C28.3782 25.1052 28.0639 24.0653 28.0628 23.0015Z" fill="white"/>
<path d="M24.9695 13.8358C25.889 12.732 26.3419 11.3133 26.2323 9.88086C24.8275 10.0284 23.5299 10.6998 22.5979 11.7612C22.1423 12.2798 21.7934 12.8831 21.5711 13.5366C21.3486 14.1901 21.2573 14.8811 21.3021 15.5698C22.0048 15.5771 22.6999 15.4248 23.3351 15.1244C23.9704 14.8241 24.5292 14.3835 24.9695 13.8358Z" fill="white"/>
</g>
</svg>
