<svg width="767" height="1111" viewBox="0 0 767 1111" fill="none" xmlns="http://www.w3.org/2000/svg">
<g opacity="0.05">
<path d="M0.00390625 1110.39H138.4C136.602 1073.17 114.675 1040.53 81.6035 1019.78C58.9569 1005.75 30.9183 997.516 0.00390625 997.516V1110.39ZM0.00390625 410.896C182.255 410.896 350.846 460.62 487.804 545.12C663.944 654.025 787.602 819.974 821.032 1011.55H683.355C680.48 998.431 677.604 985.619 673.65 972.807C660.709 927.963 641.297 884.341 616.135 843.158C566.887 762.624 494.993 691.851 408.002 638.467C350.127 602.776 286.142 575.015 218.202 555.797C156.373 538.409 92.0281 528.647 26.2452 526.512C17.6179 526.207 8.63117 526.207 0.00390625 526.207V528.037V645.483V647.313V851.7V880.07C60.7542 880.07 117.191 896.543 162.844 924.913C230.783 966.705 274.998 1034.12 276.795 1110.39H415.191C413.394 995.076 346.532 892.882 244.084 830.041C207.418 807.467 166.438 789.774 121.864 778.182V658.6C194.477 672.328 262.776 698.562 323.886 736.389C464.438 823.33 549.273 962.74 550.711 1110.39H552.868H585.22H829.3H942.892H964.101C964.101 1044.19 954.755 978.603 936.062 914.846C918.089 852.615 891.129 792.214 856.26 735.474C787.961 624.129 688.747 526.207 569.044 452.384C488.882 402.66 400.453 364.223 306.272 337.683C249.116 321.515 190.163 310.228 130.491 303.517L0.00390625 410.896ZM578.39 -61.9382L250.195 205.29C283.266 211.696 316.337 219.627 348.689 228.779C456.171 258.979 557.182 302.907 648.487 359.647C785.085 443.842 898.318 555.492 976.323 682.7C1016.22 747.676 1046.78 816.619 1067.63 887.696C1088.84 960.299 1099.62 1035.65 1099.62 1111H1231.55V432.25C1231.55 419.133 1225.08 406.32 1213.93 397.169L658.911 -61.9382C647.768 -71.0898 633.03 -75.9707 618.651 -75.9707C603.913 -75.6656 589.534 -71.0898 578.39 -61.9382Z" fill="url(#paint0_linear_1487_6704)"/>
<mask id="mask0_1487_6704" style="mask-type:luminance" maskUnits="userSpaceOnUse" x="0" y="-76" width="1232" height="1187">
<path d="M856.256 735.478C891.125 792.218 918.085 852.619 936.059 914.85C953.904 975.716 963.23 1038.25 964.04 1101.39L856.256 735.478ZM856.256 735.478C787.957 624.133 688.743 526.211 569.04 452.388L856.256 735.478ZM130.86 660.374V658.604H121.86L120.188 667.448C120.746 667.553 121.303 667.659 121.86 667.766V778.186C166.434 789.778 207.414 807.471 244.08 830.045C343.855 891.246 409.876 989.773 414.914 1101.39L130.86 660.374ZM130.86 660.374C200.118 674.525 265.303 700.133 323.882 736.393C464.435 823.334 549.269 962.744 550.707 1110.39H552.864H585.216H829.296H942.888H955.097L130.86 660.374ZM492.533 537.469L492.526 537.464C360.341 455.909 199.133 406.485 24.7322 402.203L133.259 312.896C191.183 319.603 248.37 330.662 303.818 346.347L303.827 346.35C397.241 372.673 484.889 410.78 564.296 460.036L564.306 460.042L564.316 460.048C682.907 533.185 781.075 630.127 848.585 740.184L848.588 740.19C883.05 796.269 909.673 855.928 927.412 917.347L927.417 917.365L927.422 917.382C945.025 977.421 954.23 1039.1 955.039 1101.39H942.888H829.296H585.216H559.521C554.796 953.57 468.598 815.328 328.619 728.741C266.536 690.312 197.192 663.686 123.532 649.761L112.86 647.743V658.604V778.186V785.144L119.595 786.896C163.307 798.264 203.459 815.605 239.361 837.709L239.368 837.713L239.374 837.717C336.918 897.549 400.876 993.388 405.904 1101.39H285.401C280.464 1025.25 235.067 958.787 167.575 917.263C122.718 889.391 67.9379 872.735 9 871.192V851.704V647.317V645.487V535.223C14.7025 535.247 20.3954 535.315 25.9232 535.51L25.9363 535.511L25.9493 535.511C91.0301 537.624 154.652 547.279 215.755 564.463C282.936 583.467 346.147 610.901 403.274 646.131L403.282 646.136L403.29 646.142C489.166 698.841 560.002 768.627 608.451 847.855C633.214 888.384 652.291 931.271 664.999 975.306L665.022 975.385L665.046 975.464C668.876 987.874 671.681 1000.35 674.56 1013.48L676.111 1020.55H683.351H821.028H831.735L829.894 1010.01C795.954 815.513 670.504 647.506 492.533 537.469ZM584.069 -54.9552L584.084 -54.9671L584.098 -54.9791C593.414 -62.63 605.714 -66.679 618.739 -66.9667C631.165 -66.9457 643.8 -62.6921 653.188 -54.9858C653.19 -54.9835 653.193 -54.9813 653.196 -54.9791L1208.19 404.108L1208.2 404.118L1208.22 404.128C1217.53 411.78 1222.54 422.145 1222.54 432.254V1102H1108.57C1107.74 1028.8 1096.87 955.707 1076.26 885.177L1076.26 885.167C1055.18 813.318 1024.3 743.644 983.988 677.994C905.195 549.503 790.922 436.877 653.22 351.999C561.163 294.793 459.374 250.537 351.13 220.121C324.655 212.632 297.697 205.953 270.641 200.248L584.069 -54.9552ZM76.8403 1027.43C104.947 1045.07 123.929 1071.48 128.466 1101.39H9V1006.77C34.7086 1008.19 57.8725 1015.68 76.8403 1027.43Z" stroke="white" stroke-width="18"/>
</mask>
<g mask="url(#mask0_1487_6704)">
<path d="M496.076 1623.19L-685.5 402.053L735.483 -588.459L1917.42 632.674L496.076 1623.19Z" fill="url(#paint1_linear_1487_6704)"/>
</g>
</g>
<defs>
<linearGradient id="paint0_linear_1487_6704" x1="-0.0298839" y1="517.36" x2="1231.65" y2="517.36" gradientUnits="userSpaceOnUse">
<stop offset="1.11884e-07" stop-color="#E49825"/>
<stop offset="1" stop-color="#D67227"/>
</linearGradient>
<linearGradient id="paint1_linear_1487_6704" x1="1231.34" y1="1153.03" x2="283.72" y2="-206.384" gradientUnits="userSpaceOnUse">
<stop offset="1.11884e-07" stop-color="#E49825"/>
<stop offset="1" stop-color="#D67227"/>
</linearGradient>
</defs>
</svg>
