<svg width="153" height="45" viewBox="0 0 153 45" fill="none" xmlns="http://www.w3.org/2000/svg">
<path fill-rule="evenodd" clip-rule="evenodd" d="M146.81 45H6.23329C3.11972 45 0.583984 42.4638 0.583984 39.375V5.625C0.583984 2.52494 3.11972 0 6.23329 0H146.81C149.92 0 152.459 2.52494 152.459 5.625V39.375C152.459 42.4638 149.92 45 146.81 45Z" fill="black"/>
<path fill-rule="evenodd" clip-rule="evenodd" d="M146.81 0.900561C149.421 0.900561 151.558 3.02432 151.558 5.625V39.375C151.558 41.9757 149.435 44.0994 146.81 44.0994H6.23329C3.62182 44.0994 1.4844 41.9757 1.4844 39.375V5.625C1.4844 3.02432 3.60779 0.900561 6.23329 0.900561H146.81ZM146.81 0H6.23329C3.11972 0 0.583984 2.53615 0.583984 5.625V39.375C0.583984 42.4751 3.11972 45 6.23329 45H146.81C149.92 45 152.459 42.4751 152.459 39.375V5.625C152.459 2.53615 149.92 0 146.81 0Z" fill="#A6A6A6"/>
<path d="M77.2366 24.4709C74.5906 24.4709 72.434 26.4824 72.434 29.2555C72.434 32.0106 74.5906 34.0401 77.2366 34.0401C79.8826 34.0401 82.0392 32.0106 82.0392 29.2555C82.0392 26.4824 79.8826 24.4709 77.2366 24.4709ZM77.2366 32.1557C75.7865 32.1557 74.5355 30.9599 74.5355 29.2555C74.5355 27.5331 75.7865 26.3552 77.2366 26.3552C78.6867 26.3552 79.9366 27.5331 79.9366 29.2555C79.9366 30.9587 78.6867 32.1557 77.2366 32.1557ZM66.7584 24.4709C64.1124 24.4709 61.9557 26.4824 61.9557 29.2555C61.9557 32.0106 64.1124 34.0401 66.7584 34.0401C69.4044 34.0401 71.561 32.0106 71.561 29.2555C71.5621 26.4824 69.4044 24.4709 66.7584 24.4709ZM66.7584 32.1557C65.3082 32.1557 64.0584 30.9599 64.0584 29.2555C64.0584 27.5331 65.3094 26.3552 66.7584 26.3552C68.2085 26.3552 69.4584 27.5331 69.4584 29.2555C69.4595 30.9587 68.2085 32.1557 66.7584 32.1557ZM54.2956 25.939V27.9685H59.1534C59.0082 29.1104 58.628 29.944 58.0475 30.5245C57.341 31.231 56.2351 32.0106 54.2956 32.0106C51.3054 32.0106 48.9676 29.5997 48.9676 26.6095C48.9676 23.6192 51.3054 21.2084 54.2956 21.2084C55.9089 21.2084 57.0867 21.8429 57.9564 22.6585L59.3885 21.2264C58.1746 20.0665 56.5614 19.1777 54.2956 19.1777C50.1995 19.1777 46.7559 22.5122 46.7559 26.6084C46.7559 30.7045 50.1995 34.039 54.2956 34.039C56.5062 34.039 58.1746 33.3145 59.4796 31.9544C60.8206 30.6134 61.238 28.7279 61.238 27.2057C61.238 26.7344 61.202 26.299 61.1289 25.9367H54.2956V25.939ZM105.267 27.5151C104.869 26.4452 103.654 24.4697 101.171 24.4697C98.7061 24.4697 96.6586 26.4092 96.6586 29.2544C96.6586 31.9364 98.6881 34.039 101.407 34.039C103.6 34.039 104.869 32.698 105.394 31.9184L103.763 30.8305C103.22 31.6281 102.476 32.1535 101.407 32.1535C100.337 32.1535 99.5769 31.6641 99.0875 30.7034L105.485 28.0574L105.267 27.5151ZM98.7421 29.1104C98.6881 27.262 100.174 26.3192 101.243 26.3192C102.077 26.3192 102.783 26.7355 103.019 27.334L98.7421 29.1104ZM93.5401 33.7499H95.6427V19.6862H93.5401V33.7499ZM90.0965 25.5396H90.0245C89.5531 24.9782 88.6475 24.4697 87.5056 24.4697C85.1127 24.4697 82.9201 26.5724 82.9201 29.2724C82.9201 31.9544 85.1127 34.039 87.5056 34.039C88.6475 34.039 89.5531 33.5316 90.0245 32.9511H90.0965V33.6396C90.0965 35.47 89.1177 36.4487 87.5405 36.4487C86.2535 36.4487 85.4559 35.524 85.1296 34.7455L83.2992 35.5071C83.8246 36.7761 85.2207 38.3342 87.5405 38.3342C90.0054 38.3342 92.09 36.8841 92.09 33.3505V24.76H90.0965V25.5396ZM87.6867 32.1557C86.2366 32.1557 85.0227 30.9419 85.0227 29.2735C85.0227 27.5882 86.2366 26.3552 87.6867 26.3552C89.1189 26.3552 90.2416 27.5871 90.2416 29.2735C90.2416 30.9407 89.1189 32.1557 87.6867 32.1557ZM115.116 19.6862H110.085V33.7499H112.184V28.4219H115.115C117.441 28.4219 119.728 26.7377 119.728 24.0546C119.728 21.3715 117.442 19.6862 115.116 19.6862ZM115.17 26.4644H112.184V21.6437H115.17C116.739 21.6437 117.63 22.9431 117.63 24.0546C117.63 25.1436 116.739 26.4644 115.17 26.4644ZM128.143 24.445C126.623 24.445 125.049 25.1144 124.398 26.5982L126.262 27.3767C126.66 26.5982 127.402 26.3451 128.18 26.3451C129.266 26.3451 130.37 26.9965 130.388 28.1541V28.2992C130.007 28.0821 129.193 27.7559 128.198 27.7559C126.19 27.7559 124.145 28.8595 124.145 30.9227C124.145 32.8049 125.792 34.0165 127.637 34.0165C129.049 34.0165 129.826 33.3831 130.314 32.6417H130.386V33.7274H132.413V28.3352C132.413 25.8377 130.55 24.445 128.143 24.445ZM127.889 32.1524C127.202 32.1524 126.242 31.8081 126.242 30.9587C126.242 29.8731 127.437 29.4569 128.467 29.4569C129.39 29.4569 129.824 29.656 130.385 29.9271C130.223 31.2299 129.102 32.1524 127.889 32.1524ZM139.795 24.7521L137.388 30.8496H137.316L134.82 24.7521H132.559L136.304 33.274L134.169 38.0147H136.358L142.13 24.7521H139.795ZM120.887 33.7499H122.986V19.6862H120.887V33.7499Z" fill="white"/>
<path d="M23.89 21.8516L11.9121 34.5641C11.9132 34.5663 11.9132 34.5686 11.9144 34.5708C12.2811 35.9523 13.5422 36.9682 15.0385 36.9682C15.637 36.9682 16.1984 36.8062 16.6799 36.5227L16.7181 36.5002L30.2001 28.7208L23.89 21.8516Z" fill="#EB4335"/>
<path d="M36.0088 19.6876L35.9975 19.6797L30.1768 16.3047L23.6191 22.1401L30.1993 28.7191L35.9896 25.3789C37.0044 24.8311 37.6929 23.7612 37.6929 22.5271C37.6929 21.3019 37.0134 20.2366 36.0088 19.6876Z" fill="#FABC13"/>
<path d="M11.911 10.4375C11.839 10.703 11.8008 10.9809 11.8008 11.27V33.7328C11.8008 34.022 11.8379 34.301 11.911 34.5653L24.3007 22.178L11.911 10.4375Z" fill="#547DBF"/>
<path d="M23.9777 22.5007L30.1776 16.3031L16.7102 8.49558C16.2209 8.20195 15.6505 8.0332 15.0385 8.0332C13.5422 8.0332 12.28 9.05133 11.9121 10.434V10.4373L23.9777 22.5007Z" fill="#30A851"/>
<path d="M53.8816 11.0152H50.6101V11.8264H53.0615C52.9951 12.4856 52.7308 13.0042 52.2886 13.3811C51.8454 13.758 51.2795 13.947 50.6101 13.947C49.8744 13.947 49.2523 13.6927 48.7438 13.1831C48.2443 12.6645 47.9889 12.0244 47.9889 11.2504C47.9889 10.4775 48.2443 9.83623 48.7438 9.31761C49.2523 8.80911 49.8744 8.55486 50.6101 8.55486C50.987 8.55486 51.3459 8.62011 51.6755 8.76186C52.0051 8.90361 52.2695 9.10161 52.4765 9.35586L53.0986 8.73373C52.8163 8.41311 52.4574 8.16786 52.0153 7.98898C51.572 7.81011 51.1096 7.72461 50.6101 7.72461C49.6291 7.72461 48.8 8.06436 48.1216 8.74273C47.4421 9.42223 47.1035 10.2604 47.1035 11.2504C47.1035 12.2404 47.4421 13.0796 48.1216 13.758C48.8 14.4375 49.6291 14.7761 50.6101 14.7761C51.6373 14.7761 52.4574 14.4465 53.0896 13.7771C53.6454 13.2214 53.9289 12.4665 53.9289 11.5237C53.9289 11.364 53.9098 11.1941 53.8816 11.0152Z" fill="white"/>
<path d="M55.1719 7.875V14.625H59.1127V13.7959H56.0392V11.6561H58.8101V10.845H56.0392V8.70525H59.1127V7.875H55.1719Z" fill="white"/>
<path d="M64.656 8.70525V7.875H60.0176V8.70525H61.9031V14.625H62.7705V8.70525H64.656Z" fill="white"/>
<path d="M68.881 7.875H68.0137V14.625H68.881V7.875Z" fill="white"/>
<path d="M74.611 8.70525V7.875H69.9727V8.70525H71.8582V14.625H72.7255V8.70525H74.611Z" fill="white"/>
<path d="M83.3892 8.75286C82.7198 8.06436 81.8997 7.72461 80.9187 7.72461C79.9388 7.72461 79.1176 8.06436 78.4482 8.74273C77.7788 9.41211 77.4492 10.2514 77.4492 11.2504C77.4492 12.2505 77.7788 13.0886 78.4482 13.758C79.1176 14.4375 79.9388 14.7761 80.9187 14.7761C81.8896 14.7761 82.7198 14.4375 83.3892 13.758C84.0586 13.0886 84.3882 12.2505 84.3882 11.2504C84.3882 10.2604 84.0586 9.42223 83.3892 8.75286ZM79.0715 9.31761C79.571 8.80911 80.183 8.55486 80.9187 8.55486C81.6545 8.55486 82.2665 8.80911 82.757 9.31761C83.2565 9.81823 83.5017 10.4685 83.5017 11.2504C83.5017 12.0334 83.2565 12.6836 82.757 13.1831C82.2665 13.6927 81.6545 13.947 80.9187 13.947C80.183 13.947 79.571 13.6927 79.0715 13.1831C78.581 12.6746 78.3357 12.0334 78.3357 11.2504C78.3357 10.4685 78.581 9.82723 79.0715 9.31761Z" fill="white"/>
<path d="M86.4717 10.4209L86.4346 9.11925H86.4717L89.9041 14.625H90.8086V7.875H89.9412V11.826L89.9795 13.1265H89.9412L86.6607 7.875H85.6055V14.625H86.4717V10.4209Z" fill="white"/>
</svg>
